<mxfile host="app.diagrams.net" modified="2023-05-28T10:31:33.207Z" agent="Mozilla/5.0 (Windows NT 10.0; Win64; x64) AppleWebKit/537.36 (KHTML, like Gecko) Chrome/113.0.0.0 Safari/537.36" version="21.2.9" etag="QQ8AEthSdO-pNqK-mbbk" type="github">
  <diagram name="Страница 1" id="kiHRrbz6U8IZ4niX2d-r">
    <mxGraphModel>
      <root>
        <mxCell id="0" />
        <mxCell id="1" parent="0" />
      </root>
    </mxGraphModel>
  </diagram>
</mxfile>
